<?xml version="1.0"?>
<svg xmlns="http://www.w3.org/2000/svg" xmlns:xlink="http://www.w3.org/1999/xlink" xmlns:svgjs="http://svgjs.com/svgjs" version="1.1" width="512" height="512" x="0" y="0" viewBox="0 0 497.224 497" style="enable-background:new 0 0 512 512" xml:space="preserve" class=""><g><path xmlns="http://www.w3.org/2000/svg" d="m377.222656 133.695312v-21.582031h-16v-32h-32v-56h-16v56h-16v-80h-16v80h-16v-56h-16v56h-32v32h-16v112h-134.246094l-8 32h-58.976562l32 224h-30.777344v16h496v-394.417969zm104 34.417969h-24v-39.183593l24-6.402344zm-455.917968 152-2.289063-16h34.207031v16zm47.917968-16h32v16h-32zm224-16h-32v-16h32zm-48 0h-32v-16h32zm-48 0h-32v-16h32zm-48 0h-32v-16h32zm-48 0h-32v-16h32zm16 16h32v16h-32zm48 0h32v16h-32zm48 0h32v16h-32zm48 0h32v16h-32zm14.25-48-8-32h-22.25v-96h112v352h-48v-224zm97.75-72h24v32h-24zm40 0h24v32h-24zm0-16v-28.519531l24-6.402344v34.921875zm40 16h24v32h-24zm-56-40.257812v24.257812h-24v-17.855469zm-168-47.742188h112v16h-112zm-16 32h16v96h-16zm-137.75 112h179.503906l4 16h-187.503906zm-22.25 32v16h-36.488281l-2.285156-16zm-29.628906 64h269.628906v144h-16v-64h-64v64h-16v-64h-64v64h-16v-64h-64v64h-9.0625zm237.628906 144h-32v-48h32zm-80 0h-32v-48h32zm-80 0h-32v-48h32zm272 0v-248h104v248zm0 0" fill="#ffffff" data-original="#000000" style=""/><path xmlns="http://www.w3.org/2000/svg" d="m57.222656 352.113281h16v16h-16zm0 0" fill="#ffffff" data-original="#000000" style=""/><path xmlns="http://www.w3.org/2000/svg" d="m105.222656 352.113281h16v16h-16zm0 0" fill="#ffffff" data-original="#000000" style=""/><path xmlns="http://www.w3.org/2000/svg" d="m153.222656 352.113281h16v16h-16zm0 0" fill="#ffffff" data-original="#000000" style=""/><path xmlns="http://www.w3.org/2000/svg" d="m201.222656 352.113281h16v16h-16zm0 0" fill="#ffffff" data-original="#000000" style=""/><path xmlns="http://www.w3.org/2000/svg" d="m249.222656 352.113281h16v16h-16zm0 0" fill="#ffffff" data-original="#000000" style=""/><path xmlns="http://www.w3.org/2000/svg" d="m57.222656 384.113281h16v16h-16zm0 0" fill="#ffffff" data-original="#000000" style=""/><path xmlns="http://www.w3.org/2000/svg" d="m105.222656 384.113281h16v16h-16zm0 0" fill="#ffffff" data-original="#000000" style=""/><path xmlns="http://www.w3.org/2000/svg" d="m153.222656 384.113281h16v16h-16zm0 0" fill="#ffffff" data-original="#000000" style=""/><path xmlns="http://www.w3.org/2000/svg" d="m201.222656 384.113281h16v16h-16zm0 0" fill="#ffffff" data-original="#000000" style=""/><path xmlns="http://www.w3.org/2000/svg" d="m249.222656 384.113281h16v16h-16zm0 0" fill="#ffffff" data-original="#000000" style=""/><path xmlns="http://www.w3.org/2000/svg" d="m265.222656 144.113281h16v16h-16zm0 0" fill="#ffffff" data-original="#000000" style=""/><path xmlns="http://www.w3.org/2000/svg" d="m297.222656 144.113281h16v16h-16zm0 0" fill="#ffffff" data-original="#000000" style=""/><path xmlns="http://www.w3.org/2000/svg" d="m329.222656 144.113281h16v16h-16zm0 0" fill="#ffffff" data-original="#000000" style=""/><path xmlns="http://www.w3.org/2000/svg" d="m265.222656 176.113281h16v16h-16zm0 0" fill="#ffffff" data-original="#000000" style=""/><path xmlns="http://www.w3.org/2000/svg" d="m297.222656 176.113281h16v16h-16zm0 0" fill="#ffffff" data-original="#000000" style=""/><path xmlns="http://www.w3.org/2000/svg" d="m329.222656 176.113281h16v16h-16zm0 0" fill="#ffffff" data-original="#000000" style=""/><path xmlns="http://www.w3.org/2000/svg" d="m393.222656 248.113281h16v16h-16zm0 0" fill="#ffffff" data-original="#000000" style=""/><path xmlns="http://www.w3.org/2000/svg" d="m425.222656 248.113281h16v16h-16zm0 0" fill="#ffffff" data-original="#000000" style=""/><path xmlns="http://www.w3.org/2000/svg" d="m457.222656 248.113281h16v16h-16zm0 0" fill="#ffffff" data-original="#000000" style=""/><path xmlns="http://www.w3.org/2000/svg" d="m393.222656 280.113281h16v16h-16zm0 0" fill="#ffffff" data-original="#000000" style=""/><path xmlns="http://www.w3.org/2000/svg" d="m425.222656 280.113281h16v16h-16zm0 0" fill="#ffffff" data-original="#000000" style=""/><path xmlns="http://www.w3.org/2000/svg" d="m457.222656 280.113281h16v16h-16zm0 0" fill="#ffffff" data-original="#000000" style=""/><path xmlns="http://www.w3.org/2000/svg" d="m393.222656 368.113281h16v16h-16zm0 0" fill="#ffffff" data-original="#000000" style=""/><path xmlns="http://www.w3.org/2000/svg" d="m425.222656 368.113281h16v16h-16zm0 0" fill="#ffffff" data-original="#000000" style=""/><path xmlns="http://www.w3.org/2000/svg" d="m457.222656 368.113281h16v16h-16zm0 0" fill="#ffffff" data-original="#000000" style=""/><path xmlns="http://www.w3.org/2000/svg" d="m393.222656 400.113281h16v16h-16zm0 0" fill="#ffffff" data-original="#000000" style=""/><path xmlns="http://www.w3.org/2000/svg" d="m425.222656 400.113281h16v16h-16zm0 0" fill="#ffffff" data-original="#000000" style=""/><path xmlns="http://www.w3.org/2000/svg" d="m457.222656 400.113281h16v16h-16zm0 0" fill="#ffffff" data-original="#000000" style=""/><path xmlns="http://www.w3.org/2000/svg" d="m297.222656 208.113281h16v16h-16zm0 0" fill="#ffffff" data-original="#000000" style=""/><path xmlns="http://www.w3.org/2000/svg" d="m329.222656 208.113281h16v16h-16zm0 0" fill="#ffffff" data-original="#000000" style=""/><path xmlns="http://www.w3.org/2000/svg" d="m329.222656 240.113281h16v16h-16zm0 0" fill="#ffffff" data-original="#000000" style=""/><path xmlns="http://www.w3.org/2000/svg" d="m329.222656 272.113281h16v16h-16zm0 0" fill="#ffffff" data-original="#000000" style=""/><path xmlns="http://www.w3.org/2000/svg" d="m329.222656 304.113281h16v16h-16zm0 0" fill="#ffffff" data-original="#000000" style=""/><path xmlns="http://www.w3.org/2000/svg" d="m329.222656 336.113281h16v16h-16zm0 0" fill="#ffffff" data-original="#000000" style=""/><path xmlns="http://www.w3.org/2000/svg" d="m329.222656 368.113281h16v16h-16zm0 0" fill="#ffffff" data-original="#000000" style=""/></g></svg>
