<svg xmlns="http://www.w3.org/2000/svg" width="38.458" height="53.297" viewBox="0 0 38.458 53.297">
  <path id="event-planner" d="M106.38,35.994h-4.19v-.661a1.331,1.331,0,0,0-2.656,0v.661H93.025v-.661a1.331,1.331,0,0,0-2.656,0v.66H86.084a1.215,1.215,0,0,0-1.294,1.189V52.046a1.263,1.263,0,0,0,1.294,1.25h20.3a1.348,1.348,0,0,0,1.388-1.25V37.183A1.3,1.3,0,0,0,106.38,35.994Zm-1.268,14.813H87.446V38.483h2.922v.549a1.331,1.331,0,0,0,2.656,0v-.549h6.508v.549a1.331,1.331,0,0,0,2.656,0v-.549h2.922Zm-30.522-41c.213,3.951,2,7.111,5.03,8.8a9.555,9.555,0,0,0,9.232,0,9.705,9.705,0,0,0,4.692-6.426A20.047,20.047,0,0,0,96.8,16.014l-.233.06a1.24,1.24,0,0,0-.951,1.518,1.339,1.339,0,0,0,1.62.891A11.7,11.7,0,0,0,100,17.436a1.236,1.236,0,0,0,.667-1.034,1.222,1.222,0,0,0-.584-1.077,17,17,0,0,1-5.354-6.267c-.371-.694-1.433-3.646-1.776-4.291A9.6,9.6,0,0,0,85.992.116C85.968.11,85.687.08,85.354.047,85.128.024,84.738.007,84.342,0a17.45,17.45,0,0,0-2.1.161C78.4.924,74.771,3.593,74.581,8.373q-.029.722.008,1.414C74.588,9.8,74.589,9.8,74.589,9.81ZM86.795,2.882a6.059,6.059,0,0,1,4.363,4.8c.04.253.081.893.083.946a6.671,6.671,0,0,1-6.18-1.5A10.847,10.847,0,0,0,86.795,2.882Zm4.246,8.336a7.382,7.382,0,0,1-3.546,5.249,6.746,6.746,0,0,1-6.518,0,7.414,7.414,0,0,1-3.567-5.359,9.476,9.476,0,0,0,5.484-1.775q.218-.157.424-.326A9.392,9.392,0,0,0,91.041,11.218ZM77.321,7.627c.574-3.411,3.749-5.065,6.865-5.2a7.937,7.937,0,0,1-1.8,3.917,1.258,1.258,0,0,0-.1.109A6.645,6.645,0,0,1,77.23,8.617C77.231,8.567,77.276,7.9,77.321,7.627Zm-2.247,23.25L72.235,45.243H80.2a1.247,1.247,0,1,1,0,2.49H70.638a1.365,1.365,0,0,1-1.021-.449,1.189,1.189,0,0,1-.285-1.023l3.13-15.838c1.1-5.559,6.7-8.048,11.762-8.048h0c5.063,0,10.663,2.489,11.762,8.048a1.253,1.253,0,0,1-1.064,1.451,1.326,1.326,0,0,1-1.548-1c-.821-4.153-5.187-6.012-9.15-6.012S75.9,26.724,75.074,30.877ZM102.14,43.97a1.177,1.177,0,0,1-.138.553l-1.792,3.391,0,.006a1.352,1.352,0,0,1-1.3.695,1.732,1.732,0,0,1-1.117-.7c-.241-.275-1.32-1.763-1.32-1.763a1.186,1.186,0,0,1-.239-.711,1.222,1.222,0,0,1,.568-1.022,1.385,1.385,0,0,1,1.849.308l.167.225.811-1.534a1.37,1.37,0,0,1,1.78-.563A1.239,1.239,0,0,1,102.14,43.97Z" transform="translate(-69.31 0.001)" fill="#fff"/>
</svg>
