<svg xmlns="http://www.w3.org/2000/svg" width="45" height="53.3" viewBox="0 0 45 53.3">
  <path id="schedule" d="M49.257,13.2h-6.97c2.925-.3,5.226-3.138,5.226-6.585C47.513,2.966,44.938,0,41.772,0s-5.741,2.966-5.741,6.612c0,3.446,2.3,6.284,5.226,6.585H26.426V9.324a3.233,3.233,0,0,0-2.979-3.431H21.636V3.334a1.241,1.241,0,1,0-2.458,0V5.893h-5.2V3.334a1.332,1.332,0,0,0-1.229-1.415,1.332,1.332,0,0,0-1.229,1.415V5.893H9.711A3.233,3.233,0,0,0,6.732,9.324V25.248a3.233,3.233,0,0,0,2.979,3.431H23.447a3.233,3.233,0,0,0,2.979-3.431V21.76c2.536.447,6.19,1.1,7.961,1.415V49.52a3.562,3.562,0,0,0,3.282,3.78h.719c1.694,0,3.039-1.482,3.272-3.6.031-.28.068-.612.111-.985.044.378.082.712.114.989.239,2.119,1.584,3.6,3.272,3.6h.719a3.562,3.562,0,0,0,3.282-3.78V32.53h.1a2.686,2.686,0,0,0,2.475-2.851V16.048A2.687,2.687,0,0,0,49.257,13.2ZM38.489,6.612a3.563,3.563,0,0,1,3.283-3.782,3.563,3.563,0,0,1,3.283,3.782,3.563,3.563,0,0,1-3.283,3.782A3.563,3.563,0,0,1,38.489,6.612ZM22.474,19.75h-1.8V15.526h1.62a3.279,3.279,0,0,0-.043.529v2.532A3.071,3.071,0,0,0,22.474,19.75Zm-7.531,0V15.526h3.273V19.75Zm3.273,2.831v3.267H14.942V22.581ZM9.19,15.526h3.3V19.75H9.19Zm.521-6.8h1.811v1.361A1.332,1.332,0,0,0,12.751,11.5a1.332,1.332,0,0,0,1.229-1.415V8.724h5.2v1.361a1.241,1.241,0,1,0,2.458,0V8.724h1.811a.566.566,0,0,1,.521.6V12.7H9.19V9.324A.566.566,0,0,1,9.711,8.724ZM9.19,25.248V22.581h3.3v3.267H9.711A.565.565,0,0,1,9.19,25.248Zm14.258.6H20.673V22.581h3.3v2.666A.566.566,0,0,1,23.447,25.848Zm25.827,3.831a.019.019,0,0,1-.018.02H47.928A1.332,1.332,0,0,0,46.7,31.115V49.52a.9.9,0,0,1-.825.95h-.719c-.558,0-.787-.711-.835-1.132C44.014,46.6,43,38.274,42.989,38.19a1.3,1.3,0,0,0-1.216-1.219h0a1.3,1.3,0,0,0-1.217,1.217c-.01.083-1.021,8.308-1.334,11.154-.046.419-.273,1.127-.834,1.127h-.719a.9.9,0,0,1-.824-.95V21.962a1.37,1.37,0,0,0-1.04-1.4c-.082-.015-8.219-1.469-10.89-1.932a.481.481,0,0,1-.207-.082V16.056a.027.027,0,0,1,.025-.029H39.509l.961,1.386-1.208,8.275a1.569,1.569,0,0,0,.286,1.166l1.3,1.713a1.126,1.126,0,0,0,1.851,0L44,26.856a1.569,1.569,0,0,0,.286-1.166l-1.208-8.275.961-1.386h5.221a.019.019,0,0,1,.018.02V29.679Z" transform="translate(-6.732)" fill="#fff"/>
</svg>
